<mxfile host="app.diagrams.net" agent="Mozilla/5.0 (Windows NT 10.0; Win64; x64) AppleWebKit/537.36 (KHTML, like Gecko) Chrome/138.0.0.0 Safari/537.36" version="27.0.9">
  <diagram name="Page-1" id="EUHkSj7bOCbcQ28pp_MN">
    <mxGraphModel dx="2107" dy="790" grid="1" gridSize="10" guides="1" tooltips="1" connect="1" arrows="1" fold="1" page="1" pageScale="1" pageWidth="850" pageHeight="1100" math="0" shadow="0">
      <root>
        <mxCell id="0" />
        <mxCell id="1" parent="0" />
        <mxCell id="TLgvDE2texz-sSEeVdZu-1" value="file containing dollar amount to risk today. will use locks so no data races occur" style="rounded=0;whiteSpace=wrap;html=1;" vertex="1" parent="1">
          <mxGeometry x="-350" y="495" width="120" height="60" as="geometry" />
        </mxCell>
        <mxCell id="TLgvDE2texz-sSEeVdZu-23" style="edgeStyle=orthogonalEdgeStyle;rounded=0;orthogonalLoop=1;jettySize=auto;html=1;exitX=0.5;exitY=1;exitDx=0;exitDy=0;entryX=0.5;entryY=0;entryDx=0;entryDy=0;" edge="1" parent="1" source="TLgvDE2texz-sSEeVdZu-3" target="TLgvDE2texz-sSEeVdZu-22">
          <mxGeometry relative="1" as="geometry" />
        </mxCell>
        <mxCell id="TLgvDE2texz-sSEeVdZu-24" value="reads" style="edgeLabel;html=1;align=center;verticalAlign=middle;resizable=0;points=[];" vertex="1" connectable="0" parent="TLgvDE2texz-sSEeVdZu-23">
          <mxGeometry x="0.1714" y="2" relative="1" as="geometry">
            <mxPoint x="-2" y="-11" as="offset" />
          </mxGeometry>
        </mxCell>
        <mxCell id="TLgvDE2texz-sSEeVdZu-3" value="script that buys and then sets sell stop orders for a stock -&amp;gt; amount to buy is capped by available risk dollars(will receive risk percentage to calculate dollars risked)" style="rounded=0;whiteSpace=wrap;html=1;" vertex="1" parent="1">
          <mxGeometry x="20" y="470" width="160" height="110" as="geometry" />
        </mxCell>
        <mxCell id="TLgvDE2texz-sSEeVdZu-7" style="edgeStyle=orthogonalEdgeStyle;rounded=0;orthogonalLoop=1;jettySize=auto;html=1;exitX=0;exitY=0.5;exitDx=0;exitDy=0;entryX=1;entryY=0.5;entryDx=0;entryDy=0;" edge="1" parent="1" source="TLgvDE2texz-sSEeVdZu-5" target="TLgvDE2texz-sSEeVdZu-3">
          <mxGeometry relative="1" as="geometry" />
        </mxCell>
        <mxCell id="TLgvDE2texz-sSEeVdZu-19" value="triggers" style="edgeLabel;html=1;align=center;verticalAlign=middle;resizable=0;points=[];" vertex="1" connectable="0" parent="TLgvDE2texz-sSEeVdZu-7">
          <mxGeometry x="0.2714" relative="1" as="geometry">
            <mxPoint x="19" as="offset" />
          </mxGeometry>
        </mxCell>
        <mxCell id="TLgvDE2texz-sSEeVdZu-26" style="edgeStyle=orthogonalEdgeStyle;rounded=0;orthogonalLoop=1;jettySize=auto;html=1;exitX=1;exitY=0.5;exitDx=0;exitDy=0;entryX=0;entryY=0.5;entryDx=0;entryDy=0;" edge="1" parent="1" source="TLgvDE2texz-sSEeVdZu-5" target="TLgvDE2texz-sSEeVdZu-25">
          <mxGeometry relative="1" as="geometry" />
        </mxCell>
        <mxCell id="TLgvDE2texz-sSEeVdZu-27" value="takes data from" style="edgeLabel;html=1;align=center;verticalAlign=middle;resizable=0;points=[];" vertex="1" connectable="0" parent="TLgvDE2texz-sSEeVdZu-26">
          <mxGeometry x="-0.0737" y="-4" relative="1" as="geometry">
            <mxPoint y="-4" as="offset" />
          </mxGeometry>
        </mxCell>
        <mxCell id="TLgvDE2texz-sSEeVdZu-5" value="script that decides when to buy a stock. will look at price and volume and then send a signal that the stock has met buying characteristics" style="whiteSpace=wrap;html=1;" vertex="1" parent="1">
          <mxGeometry x="320" y="475" width="160" height="100" as="geometry" />
        </mxCell>
        <mxCell id="TLgvDE2texz-sSEeVdZu-20" style="edgeStyle=orthogonalEdgeStyle;rounded=0;orthogonalLoop=1;jettySize=auto;html=1;exitX=0;exitY=0.5;exitDx=0;exitDy=0;entryX=1;entryY=0.5;entryDx=0;entryDy=0;" edge="1" parent="1" source="TLgvDE2texz-sSEeVdZu-3" target="TLgvDE2texz-sSEeVdZu-1">
          <mxGeometry relative="1" as="geometry">
            <mxPoint x="-90" y="410" as="sourcePoint" />
            <mxPoint x="-220" y="515" as="targetPoint" />
          </mxGeometry>
        </mxCell>
        <mxCell id="TLgvDE2texz-sSEeVdZu-21" value="modifies dollar available to risk" style="edgeLabel;html=1;align=center;verticalAlign=middle;resizable=0;points=[];" vertex="1" connectable="0" parent="TLgvDE2texz-sSEeVdZu-20">
          <mxGeometry x="-0.0114" y="-2" relative="1" as="geometry">
            <mxPoint as="offset" />
          </mxGeometry>
        </mxCell>
        <mxCell id="TLgvDE2texz-sSEeVdZu-22" value="file containing instructions on how many shares to buy and sell of a stock" style="whiteSpace=wrap;html=1;" vertex="1" parent="1">
          <mxGeometry x="40" y="650" width="120" height="60" as="geometry" />
        </mxCell>
        <mxCell id="TLgvDE2texz-sSEeVdZu-25" value="script(server) that fetches price and volume data" style="whiteSpace=wrap;html=1;" vertex="1" parent="1">
          <mxGeometry x="620" y="495" width="120" height="60" as="geometry" />
        </mxCell>
      </root>
    </mxGraphModel>
  </diagram>
</mxfile>
